<svg width="225" height="140" viewBox="0 0 225 140" fill="none" xmlns="http://www.w3.org/2000/svg">
<path fill-rule="evenodd" clip-rule="evenodd" d="M37.2556 76.0705C37.8406 73.3089 39.8774 72.8305 40.938 74.4019C42.328 76.3532 42.4866 79.3724 44.5962 80.7839C47.9738 82.3303 50.4736 80.7839 52.5594 77.8381C52.6322 77.7281 52.7055 77.6174 52.7787 77.5068C52.8276 77.4333 52.8764 77.3597 52.9252 77.2736L52.9492 77.2491C54.3641 74.9421 55.132 72.4013 56.0346 69.8975L56.0466 69.8604L56.1443 69.6026V69.5784L56.242 69.3328L56.2665 69.2588L56.3516 69.0506L56.3761 68.9645L56.4493 68.7681L56.4857 68.6702L56.5709 68.486L56.6442 68.2891L56.9617 67.5534C57.3883 66.5835 57.8637 65.6508 58.4249 64.7671L58.5096 64.6442L58.5829 64.5215L58.6806 64.3865L58.7663 64.2642L58.8635 64.1288L58.9611 64.0061L59.0583 63.871L59.1561 63.7478C59.193 63.699 59.2293 63.662 59.2662 63.6133L59.3509 63.5027L59.4611 63.3677L59.5588 63.2449C59.5952 63.2079 59.6315 63.1715 59.6683 63.1221L59.778 62.9994L59.8882 62.8772L59.9974 62.7659C60.0462 62.7173 60.083 62.6803 60.1199 62.6437C60.1563 62.5946 60.1926 62.558 60.2415 62.521C60.266 62.4844 60.3029 62.4474 60.3393 62.423C60.388 62.3733 60.4365 62.3245 60.4852 62.2754C60.5221 62.2384 60.5589 62.2018 60.6074 62.1653C60.6437 62.1283 60.6806 62.0917 60.7171 62.0547C60.7783 62.0055 60.8271 61.9562 60.8755 61.9192C60.9124 61.8822 60.9487 61.8579 60.9852 61.8213C61.0345 61.7843 61.0828 61.7476 61.1196 61.7106C61.1686 61.6742 61.2049 61.6372 61.2537 61.6006C61.3026 61.5636 61.3389 61.527 61.3878 61.4899C61.4367 61.4529 61.485 61.4159 61.5343 61.3793C61.5708 61.3423 61.6195 61.3058 61.6684 61.2688C61.7173 61.2322 61.7656 61.1956 61.8269 61.1586L61.9121 61.0846C61.9854 61.0359 62.0461 60.9867 62.1195 60.9375C62.2171 60.8761 62.3149 60.8026 62.4245 60.729C62.5341 60.6675 62.6317 60.594 62.7415 60.5199C64.4364 59.4646 66.7899 58.1511 68.5825 59.735C70.4116 61.4287 70.6553 63.4783 69.3142 65.9208C69.2653 66.0066 69.2164 66.1049 69.1677 66.1907L69.1312 66.2643C69.0823 66.3379 69.0461 66.3992 69.0092 66.4606L68.9483 66.559C68.9114 66.6205 68.8755 66.6818 68.8386 66.7311L68.7779 66.829C68.741 66.8903 68.7041 66.9391 68.6677 67.0004L68.607 67.0989C68.5705 67.148 68.5218 67.2095 68.4849 67.2708L68.424 67.3566C68.3627 67.4302 68.3139 67.5042 68.253 67.59L68.2412 67.6021L68.2286 67.6143C68.1679 67.6879 68.1071 67.7737 68.0458 67.8599L67.9849 67.9213C67.9362 67.9826 67.8877 68.0441 67.8384 68.1054L67.7777 68.1912C67.7288 68.2405 67.6799 68.3014 67.6312 68.3505L67.5579 68.4367C67.5095 68.4982 67.4607 68.5474 67.4118 68.6088L67.3505 68.6702C67.2897 68.7311 67.229 68.7925 67.18 68.8544L67.1193 68.9157C67.058 68.9771 66.9971 69.0506 66.9244 69.1115L66.8995 69.1486C66.8386 69.21 66.7654 69.2841 66.7046 69.3449L66.6802 69.3698V69.3819L66.6069 69.4434L66.5705 69.4799H66.5581V69.492L66.4608 69.5784V69.5901H66.4484L66.436 69.6148H66.424L66.3877 69.6636L66.3508 69.6884L66.3388 69.7006L66.2043 69.8234L66.1799 69.8482L66.1678 69.8731L66.0707 69.9467L66.0338 69.9954L65.9849 70.0324L65.8021 70.1917L65.7656 70.241C65.0823 70.8426 64.3632 71.4069 63.6435 71.9589L62.6437 72.7327C62.3024 72.9904 61.961 73.2359 61.6195 73.4936C60.1683 74.5489 58.7174 75.6165 57.3758 76.7585L57.3514 76.7828L57.1565 76.9544L57.0952 77.0035L56.9128 77.1633L56.8396 77.2242L56.6687 77.384L56.6198 77.4333C56.4124 77.6174 56.2176 77.8138 56.0102 78.0102L55.9857 78.0345C55.9246 78.0958 55.8761 78.1452 55.8148 78.2065L55.754 78.2679L55.5956 78.4272L55.5224 78.5013L55.3883 78.6606L55.303 78.7342L55.1565 78.9057L55.1201 78.9553C55.0593 79.0167 54.998 79.0777 54.9492 79.139C54.2664 79.9249 53.6688 80.7595 53.1933 81.6551C52.2299 84.1345 52.0959 86.7854 53.2666 89.6577C55.4979 94.5308 59.9489 95.6348 64.2899 97.6846C62.8023 99.7835 60.9124 101.563 58.7299 102.876C56.3272 98.5435 54.6446 93.6957 51.157 91.6216C48.4742 90.5784 46.0475 90.5658 44.3036 93.3639C43.8038 94.4442 43.4505 95.6105 43.1699 96.8377C42.1577 100.446 40.1821 101.293 38.6943 98.1382C38.3165 96.8871 38.1211 95.7084 38.8652 94.5425C40.2921 92.5663 43.4743 92.1487 44.2429 89.2528C44.8893 86.442 44.3162 83.9503 42.5359 81.7782C41.8162 81.0539 41.0845 80.3546 39.743 80.0842C38.1211 79.7159 36.8408 78.931 37.2556 76.0705V76.0705Z" fill="#DB363A"/>
<path fill-rule="evenodd" clip-rule="evenodd" d="M49.6205 61.8335C52.4619 61.8335 55.1934 62.3612 57.7297 63.3186C56.9129 64.4479 56.2665 65.6753 55.6934 66.9883C53.7786 66.3379 51.7421 65.9822 49.6205 65.9822C38.7677 65.9822 29.988 75.1258 29.988 86.3928C29.988 97.6719 38.7677 106.804 49.6205 106.804C60.4609 106.804 69.2409 97.6719 69.2409 86.3928C69.2409 81.312 67.4483 76.6479 64.4853 73.0766C65.5709 72.2416 66.6194 71.3825 67.5704 70.4496C71.1069 74.7332 73.2285 80.3055 73.2285 86.3928C73.2285 99.9672 62.6563 110.952 49.6205 110.952C36.5723 110.952 26 99.9672 26 86.3928C26 72.8306 36.5723 61.8335 49.6205 61.8335V61.8335Z" fill="#03369E"/>
<path d="M105.836 77.3959C108.715 77.3959 110.909 78.3191 112.411 80.1653C113.913 82.0031 114.668 84.6847 114.668 88.1835V99.7008C114.668 100.334 114.335 100.65 113.687 100.65H106.808C106.511 100.65 106.277 100.571 106.098 100.404C105.926 100.246 105.836 100.009 105.836 99.7008V88.1045C105.836 87.3484 105.603 86.7505 105.135 86.2934C104.677 85.836 104.119 85.6075 103.463 85.6075C102.59 85.6075 101.861 85.8535 101.277 86.3549C100.701 86.8562 100.414 87.533 100.414 88.3944V99.7008C100.414 100.334 100.081 100.65 99.433 100.65H92.5803C91.9329 100.65 91.6089 100.334 91.6089 99.7008V88.1045C91.6089 87.3484 91.3756 86.7505 90.8987 86.2934C90.4223 85.836 89.8551 85.6075 89.1902 85.6075C88.3804 85.6075 87.6971 85.9066 87.1394 86.4957C86.5912 87.0936 86.3121 87.8142 86.3121 88.676L86.2852 88.6234V99.7008C86.2852 100.334 85.9792 100.65 85.3676 100.65H78.461C77.8136 100.65 77.4897 100.334 77.4897 99.7008V79.0928C77.4897 78.8029 77.5799 78.5653 77.7683 78.3985C77.9482 78.2222 78.1909 78.1433 78.488 78.1433H83.9647C84.1805 78.1433 84.3694 78.1871 84.5313 78.2841C84.7024 78.3718 84.8195 78.5127 84.8913 78.6797L85.3946 80.2797C86.2129 79.3476 87.1664 78.6354 88.2369 78.1433C89.3069 77.6424 90.4133 77.3959 91.5551 77.3959C93.1919 77.3959 94.6038 77.6863 95.7999 78.2841C96.996 78.8731 97.9494 79.7437 98.6691 80.8952C99.4605 79.7964 100.504 78.9346 101.789 78.3191C103.085 77.7033 104.433 77.3959 105.836 77.3959V77.3959ZM133.347 77.3696C136.369 77.3696 138.635 78.2929 140.155 80.1389C141.675 81.985 142.43 84.6667 142.43 88.1835V99.7008C142.43 100.334 142.107 100.65 141.459 100.65H134.606C133.959 100.65 133.635 100.334 133.635 99.7008V88.1045C133.635 87.3834 133.365 86.7855 132.816 86.3198C132.268 85.8447 131.63 85.6075 130.892 85.6075C130.046 85.6075 129.336 85.8798 128.761 86.4343C128.176 86.979 127.888 87.7265 127.888 88.676L127.861 88.6234V99.7008C127.861 100.334 127.555 100.65 126.944 100.65H120.037C119.389 100.65 119.066 100.334 119.066 99.7008V79.0928C119.066 78.8029 119.156 78.5653 119.345 78.3985C119.524 78.2222 119.767 78.1433 120.064 78.1433H125.541C125.757 78.1433 125.946 78.1871 126.108 78.2841C126.279 78.3718 126.395 78.5127 126.467 78.6797L126.917 80.0951C127.762 79.2249 128.734 78.5477 129.84 78.0726C130.946 77.5987 132.115 77.3696 133.347 77.3696V77.3696ZM154.716 78.1609C155.012 78.1609 155.237 78.2397 155.399 78.3985C155.552 78.5477 155.633 78.7675 155.633 79.0398V99.771C155.633 100.378 155.327 100.677 154.716 100.677H147.754C147.458 100.677 147.233 100.598 147.071 100.448C146.918 100.29 146.837 100.07 146.837 99.771V79.0398C146.837 78.7675 146.918 78.5477 147.089 78.3985C147.251 78.2397 147.476 78.1609 147.754 78.1609H154.716V78.1609Z" fill="#03369E"/>
<path d="M109.75 114.924H110.383L110.468 114.489C110.518 114.261 110.518 114.062 110.518 114.062H110.537C110.751 114.696 111.351 115.037 112.068 115.037C113.427 115.037 114.727 113.777 114.727 111.957C114.727 110.78 114.078 110.04 112.932 110.04C112.206 110.04 111.516 110.438 111.167 110.997H111.147C111.147 110.997 111.224 110.78 111.274 110.562L111.73 108.258H111.07L109.75 114.924V114.924ZM110.809 113.113C110.809 111.89 111.615 110.629 112.816 110.629C113.583 110.629 114.048 111.151 114.048 112.003C114.048 113.54 112.97 114.459 112.03 114.459C111.167 114.459 110.809 113.844 110.809 113.113V113.113ZM114.697 116.147L114.367 116.631C114.367 116.631 114.708 116.916 115.26 116.916C115.843 116.916 116.377 116.575 116.764 115.938L120.333 110.156H119.586L117.471 113.728C117.336 113.957 117.202 114.223 117.202 114.223H117.191C117.191 114.223 117.152 113.957 117.103 113.72L116.347 110.156H115.659L116.764 114.876L116.327 115.57C116.047 116.005 115.698 116.338 115.241 116.338C114.903 116.338 114.697 116.147 114.697 116.147ZM122.805 114.185C122.805 114.185 123.465 115.037 124.92 115.037C126.251 115.037 127.229 114.099 127.229 113.046C127.229 111.207 124.406 111.331 124.406 110.108C124.406 109.463 125.115 108.769 126.105 108.769C126.996 108.769 127.51 109.291 127.51 109.291L127.909 108.791C127.909 108.791 127.337 108.146 126.094 108.146C124.766 108.146 123.718 109.073 123.718 110.108C123.718 111.852 126.539 111.691 126.539 113.046C126.539 113.882 125.725 114.411 124.92 114.411C123.826 114.411 123.254 113.72 123.254 113.72L122.805 114.185V114.185ZM128.646 113.615C128.646 114.752 129.432 114.962 130.062 114.962C130.199 114.962 130.314 114.943 130.314 114.943L130.43 114.365C130.43 114.365 130.323 114.384 130.15 114.384C129.789 114.384 129.314 114.279 129.314 113.529C129.314 113.408 129.336 113.266 129.363 113.105L129.828 110.742H131.051L131.159 110.194H129.927L130.207 108.836H129.558L129.286 110.194H128.637L128.53 110.742H129.171L128.695 113.094C128.665 113.293 128.646 113.465 128.646 113.615ZM131.488 113.027C131.488 114.231 132.382 115.037 133.718 115.037C134.747 115.037 135.544 114.411 135.544 114.411L135.33 113.882C135.33 113.882 134.62 114.459 133.738 114.459C132.701 114.459 132.176 113.796 132.176 112.981C132.176 112.847 132.187 112.715 132.217 112.572H135.959C135.959 112.572 136.105 112.137 136.105 111.766C136.105 110.772 135.544 110.04 134.321 110.04C132.682 110.04 131.488 111.473 131.488 113.027V113.027ZM132.341 112.043C132.69 111.102 133.507 110.581 134.321 110.581C134.95 110.581 135.426 110.952 135.426 111.71C135.426 111.882 135.398 112.043 135.398 112.043H132.341ZM136.765 114.924H137.425L137.774 113.142C137.977 112.107 138.745 110.753 139.792 110.753C139.888 110.753 139.965 110.761 140.034 110.772L140.161 110.135C140.084 110.116 139.985 110.108 139.869 110.108C139.063 110.108 138.415 110.734 138.085 111.417H138.065C138.065 111.417 138.134 111.207 138.181 110.997L138.357 110.156H137.705L136.765 114.924V114.924ZM140.356 114.08C140.356 114.82 140.917 114.962 141.296 114.962C141.412 114.962 141.519 114.943 141.519 114.943L141.645 114.365C141.645 114.365 141.588 114.373 141.5 114.373C141.296 114.373 141.043 114.347 141.043 113.949C141.043 113.871 141.054 113.758 141.073 113.653L142.148 108.258H141.489L140.394 113.739C140.364 113.871 140.356 113.986 140.356 114.08V114.08ZM143.738 109.065H144.455L144.62 108.258H143.914L143.738 109.065V109.065ZM142.605 114.924H143.265L144.213 110.156H143.554L142.605 114.924ZM144.854 114.924H145.514L145.948 112.715C146.171 111.616 147.134 110.648 148.228 110.648C148.734 110.648 149.064 110.895 149.064 111.436C149.064 111.634 149.033 111.852 148.987 112.07L148.423 114.924H149.083L149.685 111.909C149.732 111.672 149.762 111.462 149.762 111.274C149.762 110.457 149.248 110.04 148.365 110.04C147.279 110.04 146.463 110.798 146.212 111.282H146.193C146.193 111.282 146.278 111.057 146.317 110.839L146.443 110.156H145.803L144.854 114.924V114.924ZM150.752 116.024L150.433 116.518C150.79 116.707 151.354 116.916 152.08 116.916C153.226 116.916 154.39 116.384 154.689 114.868L155.632 110.156H154.992L154.884 110.677C154.865 110.78 154.873 110.885 154.873 110.885H154.854C154.642 110.25 153.952 110.04 153.303 110.04C151.645 110.04 150.744 111.661 150.744 113C150.744 114.148 151.442 114.895 152.594 114.895C153.312 114.895 153.837 114.572 154.214 114.024H154.236C154.236 114.024 154.156 114.223 154.128 114.403L154.029 114.838C153.798 115.892 152.973 116.338 152.033 116.338C151.296 116.338 150.752 116.024 150.752 116.024V116.024ZM151.42 112.962C151.42 111.823 152.11 110.629 153.353 110.629C154.06 110.629 154.593 110.922 154.593 111.785C154.593 112.876 153.991 114.317 152.701 114.317C151.887 114.317 151.42 113.796 151.42 112.962V112.962Z" fill="#191919"/>
<path fill-rule="evenodd" clip-rule="evenodd" d="M168.613 84.0931L168.614 84.0916C167.958 83.8539 167.359 83.5406 166.822 83.161C166.511 82.9413 166.511 82.4964 166.822 82.2772C167.359 81.8977 167.958 81.5844 168.614 81.3461L168.613 81.3451C169.32 81.0893 169.808 80.3936 169.725 79.5971C169.642 78.8073 168.968 78.1641 168.159 78.1002C167.31 78.0339 166.58 78.5724 166.365 79.3213L166.364 79.3203C166.206 79.8708 165.993 80.3878 165.727 80.8662C165.519 81.2414 164.964 81.2414 164.756 80.8662C164.49 80.3873 164.276 79.8708 164.118 79.3203L164.117 79.3213C163.903 78.5724 163.173 78.0339 162.324 78.1002C161.515 78.1636 160.84 78.8073 160.758 79.5971C160.675 80.3936 161.163 81.0893 161.87 81.3451L161.868 81.3461C162.525 81.5844 163.124 81.8977 163.661 82.2772C163.971 82.4964 163.971 82.9413 163.661 83.1606C163.124 83.5405 162.525 83.8539 161.868 84.0916L161.87 84.0931C161.163 84.3489 160.675 85.0441 160.758 85.8413C160.84 86.6306 161.515 87.2742 162.324 87.3374C163.173 87.4043 163.903 86.8658 164.117 86.117L164.118 86.118C164.276 85.5675 164.49 85.0505 164.756 84.5721C164.964 84.1968 165.519 84.1968 165.727 84.5721C165.993 85.0505 166.206 85.5675 166.364 86.118L166.365 86.117C166.58 86.8658 167.31 87.4043 168.159 87.3374C168.968 87.2742 169.643 86.6306 169.725 85.8407C169.808 85.0441 169.32 84.3489 168.613 84.0931Z" fill="#DB363A"/>
</svg>
